<svg xmlns="http://www.w3.org/2000/svg" viewBox="0 0 460 486">
  <defs>
    <style type="text/css">
      @import url('https://api.fontshare.com/v2/css?f%5B%5D=satoshi@400,500,700,900&display=swap');
      .wm { font-family: 'Satoshi', sans-serif; font-weight: 500; font-size: 110px; letter-spacing: -0.035em; fill: #fafafa; text-anchor: middle; }
    </style>
  </defs>
  <rect width="460" height="486" fill="#0a0a0a"/>
  <g transform="translate(113.56435643564356 40)"><g transform="scale(0.39603960396039606)"><path d="M5.12 1.24 C4.41 1.53 1.55 4.58 1.25 5.37 0.59 7.1 0.95 291.69 1.61 295.55 2.29 299.5 2.61 303.05 3 310.8 3.31 316.81 3.62 318.85 4.83 322.62 6.11 326.61 6.2 327.04 6.5 330.62 6.84 334.65 7.26 336.54 8.35 338.83 9.36 340.96 9.67 341.95 9.88 343.62 10.33 347.24 10.81 349.1 11.87 351.26 12.48 352.53 13.15 354.38 13.37 355.45 14.1 359.02 14.51 360.29 15.33 361.58 16.36 363.2 16.63 363.91 17.15 366.25 17.59 368.26 18.07 369.36 19.39 371.36 19.85 372.06 20.46 373.51 20.75 374.6 21.35 376.87 21.48 377.14 22.79 378.98 23.32 379.73 23.98 381.09 24.25 382.02 24.55 383.02 25.3 384.52 26.12 385.75 26.88 386.89 27.5 387.94 27.5 388.1 27.52 388.81 28.8 391.39 29.73 392.6 30.3 393.33 31.05 394.65 31.41 395.53 31.76 396.41 32.52 397.8 33.11 398.63 33.69 399.45 34.51 400.86 34.92 401.75 35.34 402.65 36.1 403.88 36.62 404.5 37.15 405.12 37.96 406.42 38.43 407.4 38.9 408.37 39.74 409.72 40.29 410.4 40.85 411.07 41.63 412.26 42.02 413.03 42.41 413.81 43.18 414.97 43.73 415.6 44.27 416.23 45.07 417.41 45.51 418.23 45.95 419.05 46.79 420.28 47.37 420.97 47.96 421.66 48.7 422.65 49.02 423.18 49.33 423.7 50.12 424.69 50.76 425.39 51.4 426.08 52.24 427.14 52.62 427.74 53 428.34 53.78 429.35 54.36 429.98 54.93 430.61 55.79 431.63 56.25 432.25 56.72 432.87 57.61 433.95 58.24 434.66 58.86 435.36 60.45 437.15 61.75 438.64 69.12 447 81.21 458.61 88.49 464.31 89.23 464.9 90.47 465.95 91.24 466.64 92 467.34 93.22 468.33 93.94 468.85 94.66 469.37 95.25 469.89 95.25 470 95.25 470.12 96.07 470.82 97.07 471.57 98.06 472.33 99.16 473.25 99.5 473.62 99.85 474 100.75 474.73 101.5 475.25 102.26 475.76 103.37 476.6 103.97 477.1 104.57 477.6 105.75 478.42 106.6 478.91 107.44 479.4 108.6 480.24 109.17 480.76 109.73 481.29 110.77 482.01 111.46 482.35 112.14 482.7 113.23 483.44 113.88 484 114.53 484.56 115.92 485.46 116.98 485.99 118.04 486.52 119.4 487.38 120.01 487.89 120.62 488.4 121.85 489.16 122.73 489.56 123.62 489.96 125.04 490.77 125.9 491.36 126.75 491.95 128.19 492.73 129.09 493.09 130 493.45 131.45 494.24 132.34 494.84 133.22 495.44 134.49 496.13 135.16 496.37 137.22 497.09 138.06 497.5 139.68 498.54 140.54 499.1 142.24 499.86 143.51 500.25 144.77 500.64 146.22 501.24 146.73 501.57 148.43 502.7 150.11 503.43 152 503.84 153.07 504.08 154.52 504.63 155.38 505.13 157.73 506.5 158.44 506.77 161.4 507.39 163.29 507.79 164.92 508.34 166.52 509.12 168.9 510.26 169.53 510.41 175.56 511.23 176.62 511.38 178.54 511.9 179.81 512.4 183.06 513.67 185.9 514.18 191.38 514.49 193.99 514.62 197.59 514.91 199.38 515.13 205.26 515.84 207.76 515.97 210.93 515.72 217.9 515.16 218.18 515.69 217.78 528.68 217.64 533.46 217.44 551.51 217.35 568.79 217.17 603.35 217.16 602.93 218.66 604.43 219.58 605.35 368.06 605.33 371.15 604.41 373.75 603.63 376.32 603.31 382.38 603 388.36 602.7 390.92 602.29 394.06 601.16 396.94 600.12 398.3 599.83 402 599.5 405.97 599.15 407.18 598.87 410.1 597.63 411.71 596.94 413.36 596.44 414.63 596.26 421.19 595.29 421.31 595.26 423.64 594.11 425.01 593.44 426.57 592.88 427.53 592.72 432.03 591.98 432.94 591.72 435.37 590.52 437.18 589.62 438.48 589.16 440.04 588.88 442.56 588.43 443.48 588.08 445.41 586.85 446.38 586.23 447.6 585.76 449.4 585.32 451.32 584.85 452.51 584.38 454.04 583.48 455.36 582.7 456.72 582.13 457.86 581.87 459.9 581.41 461.52 580.74 462.61 579.91 463.8 579 464.71 578.6 466.92 578.01 468.37 577.62 469.43 577.13 470.55 576.35 471.62 575.59 472.88 575 474.5 574.5 475.93 574.06 477.23 573.48 477.75 573.05 478.92 572.09 479.93 571.59 481.94 570.97 482.9 570.67 484.3 569.97 485.2 569.33 486.17 568.64 487.63 567.92 488.98 567.47 490.35 567 491.55 566.41 492.15 565.9 493.27 564.94 494.68 564.19 496.16 563.75 496.72 563.58 497.9 562.9 498.78 562.25 499.66 561.6 501.17 560.73 502.14 560.33 503.11 559.92 504.51 559.13 505.26 558.57 506.01 558.01 507.25 557.25 508.01 556.9 508.77 556.54 509.95 555.78 510.63 555.22 511.31 554.65 512.66 553.81 513.62 553.35 514.59 552.89 515.93 552.05 516.62 551.49 517.3 550.92 518.43 550.17 519.12 549.82 519.81 549.47 520.94 548.69 521.62 548.1 522.29 547.5 523.57 546.65 524.45 546.2 525.33 545.75 526.62 544.89 527.31 544.3 528.01 543.71 528.98 543.02 529.48 542.76 529.97 542.51 531.03 541.73 531.84 541.02 532.63 540.32 533.73 539.52 534.26 539.25 534.79 538.97 535.86 538.24 536.62 537.62 537.38 537 538.65 536.08 539.44 535.58 540.23 535.07 541.38 534.19 542 533.62 542.62 533.05 543.75 532.19 544.5 531.71 545.25 531.23 546.04 530.63 546.25 530.39 546.45 530.14 547.4 529.33 548.37 528.59 554.1 524.2 558.96 520.1 563.02 516.25 563.82 515.5 565.62 513.86 567.03 512.63 568.44 511.39 570.17 509.81 570.89 509.13 571.61 508.44 573.39 506.81 574.88 505.5 579.29 501.59 586.18 494.77 586.61 493.88 587.31 492.41 587.2 150.7 586.5 150 585.33 148.83 580.43 150.72 576.96 153.68 576.27 154.28 574.87 155.15 573.85 155.62 572.83 156.09 571.51 156.87 570.92 157.36 570.33 157.84 569.21 158.53 568.45 158.88 567.68 159.23 566.32 160.06 565.42 160.72 564.52 161.39 563.12 162.18 562.31 162.48 561.49 162.79 560.28 163.49 559.61 164.04 558.24 165.18 557.6 165.53 555.71 166.24 554.98 166.52 553.82 167.21 553.12 167.78 552.44 168.36 551.03 169.21 550.01 169.68 548.98 170.15 547.63 170.91 547.01 171.37 546.38 171.82 545.03 172.62 544 173.13 542.97 173.65 541.69 174.44 541.16 174.89 540.63 175.35 539.45 176.03 538.54 176.41 536.74 177.16 535.84 177.69 534.52 178.83 534.05 179.23 532.95 179.88 532.07 180.28 531.2 180.67 529.77 181.49 528.91 182.11 528.05 182.73 526.84 183.45 526.24 183.71 525.62 183.97 524.45 184.7 523.62 185.33 522.78 185.96 521.25 186.86 520.2 187.34 519.15 187.82 517.8 188.66 517.19 189.22 516.59 189.78 515.34 190.57 514.43 190.98 513.52 191.39 512.17 192.17 511.45 192.71 510.72 193.25 509.45 194.04 508.61 194.45 507.78 194.87 506.61 195.62 506.01 196.12 504.83 197.11 503.65 197.77 502.25 198.22 501.77 198.37 500.76 199.01 500 199.64 499.25 200.27 497.81 201.16 496.8 201.63 495.8 202.1 494.56 202.81 494.05 203.22 493.54 203.62 492.29 204.36 491.27 204.85 490.26 205.34 488.86 206.19 488.15 206.73 487.45 207.27 486.03 208.1 485 208.57 483.97 209.04 482.62 209.85 482 210.38 481.38 210.9 480.06 211.7 479.06 212.16 478.06 212.62 476.65 213.43 475.93 213.97 475.22 214.51 473.9 215.31 473.01 215.76 472.12 216.2 470.8 217.05 470.07 217.64 469.35 218.23 468.33 218.85 467.82 219.02 466.33 219.5 465.06 220.21 464.05 221.11 463.54 221.56 462.22 222.4 461.1 222.95 459.99 223.51 458.75 224.24 458.35 224.58 457.95 224.91 456.71 225.65 455.58 226.22 454.45 226.78 453.14 227.59 452.66 228 452.19 228.42 450.85 229.2 449.7 229.73 448.55 230.27 447.01 231.21 446.29 231.82 445.57 232.44 444.35 233.18 443.57 233.48 442.8 233.77 441.48 234.51 440.63 235.11 439.79 235.72 438.39 236.56 437.52 236.98 436.65 237.4 435.36 238.18 434.66 238.72 433.95 239.26 432.53 240.08 431.5 240.56 430.47 241.04 429.07 241.89 428.38 242.47 427.69 243.04 426.48 243.76 425.68 244.07 424.88 244.38 423.59 245.12 422.81 245.71 422.02 246.31 420.59 247.16 419.63 247.61 418.67 248.06 417.33 248.88 416.67 249.44 416 249.99 414.78 250.71 413.96 251.04 413.13 251.36 411.89 252.11 411.2 252.7 409.79 253.9 409.15 254.27 407.19 255 406.45 255.28 405.37 255.9 404.81 256.39 404.24 256.87 402.96 257.65 401.95 258.11 400.95 258.57 399.68 259.31 399.13 259.76 398.58 260.2 397.22 260.99 396.12 261.5 393.83 262.56 393.05 263.35 392.22 265.44 391.64 266.88 391.64 266.88 391.45 326.88 391.06 445.91 391.42 436.87 386.99 439.13 386.36 439.45 385.35 440.13 384.74 440.64 384.13 441.15 383.12 441.79 382.5 442.05 380.34 442.99 379.87 443.26 378.51 444.38 377.73 445.01 376.44 445.75 375.55 446.06 374.69 446.37 373.45 447.05 372.8 447.57 372.16 448.08 370.69 448.96 369.53 449.52 368.38 450.07 366.92 450.92 366.28 451.41 365.65 451.9 364.34 452.66 363.38 453.11 362.42 453.56 361.08 454.38 360.42 454.93 359.76 455.49 358.43 456.25 357.46 456.63 356.5 457 355.19 457.76 354.56 458.31 353.92 458.87 352.38 459.79 351.14 460.37 349.89 460.95 348.54 461.71 348.12 462.06 347.7 462.42 346.55 463.1 345.55 463.59 344.56 464.07 343.07 464.97 342.25 465.59 341.43 466.21 340.33 466.85 339.82 467.02 338.31 467.5 337.13 468.17 335.92 469.22 335.3 469.76 334.02 470.49 333.08 470.85 332.14 471.21 330.76 472.01 330 472.63 329.25 473.25 327.86 474.05 326.93 474.4 326 474.76 324.59 475.53 323.81 476.12 323.02 476.71 321.76 477.45 321 477.77 320.25 478.08 319.14 478.69 318.54 479.11 316.64 480.46 315.66 480.99 314.33 481.38 313.62 481.59 312.21 482.32 311.21 483 310.17 483.71 308.54 484.53 307.45 484.89 306.26 485.29 304.91 485.99 303.92 486.72 302.82 487.54 301.73 488.08 300.45 488.45 299.3 488.78 297.88 489.46 296.72 490.23 295.68 490.91 294.17 491.66 293.36 491.89 291.66 492.38 290.44 492.96 288.64 494.14 287.95 494.6 286.4 495.25 285.22 495.59 282.83 496.27 282.6 496.38 280.46 497.76 279.39 498.45 278.33 498.86 276.63 499.25 274.82 499.67 273.89 500.04 272.63 500.86 271.73 501.46 270.52 502.06 269.94 502.21 269.35 502.36 267.93 502.71 266.77 502.99 265.43 503.32 264.03 503.88 262.95 504.52 261.78 505.21 260.64 505.65 259.31 505.91 258.25 506.12 256.55 506.47 255.55 506.67 254.54 506.88 253 507.42 252.13 507.88 249.97 509.03 248.47 509.42 244.46 509.88 241.16 510.25 239.31 510.7 236.96 511.71 231.97 513.86 220.99 513.97 220.12 511.89 219.8 511.12 219.75 479.64 219.75 258.57 219.75 78.88 219.67 5.84 219.48 5.16 219.19 4.1 217.32 1.93 216.21 1.36 215.44 0.95 6.1 0.84 5.13 1.24 Z" fill="#fafafa"/></g></g>
  <text x="230" y="429.5" class="wm">untab</text>
</svg>